<svg width="345" height="696" viewBox="0 0 345 696" fill="none" xmlns="http://www.w3.org/2000/svg">
  <defs>
    <filter id="cardShadow" x="-20" y="-20" width="385" height="190" filterUnits="userSpaceOnUse">
      <feDropShadow dx="0" dy="5" stdDeviation="7.5" flood-color="#000000" flood-opacity="0.05"/>
    </filter>
    <filter id="circleShadow" x="70" y="235" width="205" height="205" filterUnits="userSpaceOnUse">
      <feDropShadow dx="0" dy="0" stdDeviation="10" flood-color="#2EA8E5" flood-opacity="0.10"/>
    </filter>
  </defs>

  <rect width="345" height="696" fill="#F7F9FC"/>

  <g transform="translate(20 17)">
    <text x="0" y="13" fill="#6B7280" font-family="Montserrat, Arial, sans-serif" font-size="14">Hello, Selamat Siang</text>
    <text x="0" y="42" fill="#111827" font-family="Montserrat, Arial, sans-serif" font-size="22" font-weight="700">Have a fresh day</text>
    <g transform="translate(278 5)">
      <path d="M1 7C9 -1 23 -1 31 7" stroke="#EF4444" stroke-width="3" stroke-linecap="round"/>
      <path d="M8 15C13 10 19 10 24 15" stroke="#EF4444" stroke-width="3" stroke-linecap="round"/>
      <circle cx="16" cy="24" r="3.3" fill="#EF4444"/>
    </g>
  </g>

  <g transform="translate(20 82)">
    <text x="0" y="14" fill="#111827" font-family="Montserrat, Arial, sans-serif" font-size="15">Udara :</text>
    <text x="58" y="14" fill="#22C55E" font-family="Montserrat, Arial, sans-serif" font-size="15" font-weight="700">Baik</text>
  </g>

  <g transform="translate(20 111)">
    <rect width="88" height="34" rx="16" fill="#F1E7FF" stroke="#8B5CF6" stroke-opacity="0.08"/>
    <circle cx="17" cy="17" r="9" fill="#8B5CF6" fill-opacity="0.16"/>
    <path d="M13.4 17a4.6 4.6 0 1 0 2.3-4" stroke="#8B5CF6" stroke-width="1.6" stroke-linecap="round"/>
    <path d="M15.5 12.5h5v5" stroke="#8B5CF6" stroke-width="1.6" stroke-linecap="round" stroke-linejoin="round"/>
    <text x="32" y="22" fill="#8B5CF6" font-family="Montserrat, Arial, sans-serif" font-size="12" font-weight="600">Connect</text>
  </g>
  <g transform="translate(116 111)">
    <rect width="96" height="34" rx="16" fill="#EAF4FF" stroke="#2196F3" stroke-opacity="0.08"/>
    <circle cx="17" cy="17" r="9" fill="#2196F3" fill-opacity="0.14"/>
    <path d="M12.5 12h9.5l-3.5 4.5v4l-2.8 1.5v-5.5L12.5 12z" fill="#2196F3"/>
    <text x="32" y="22" fill="#2196F3" font-family="Montserrat, Arial, sans-serif" font-size="12" font-weight="600">Filter 100%</text>
  </g>
  <g transform="translate(220 111)">
    <rect width="86" height="34" rx="16" fill="#EAF4FF" stroke="#2196F3" stroke-opacity="0.08"/>
    <circle cx="17" cy="17" r="9" fill="#2196F3" fill-opacity="0.14"/>
    <path d="M13 13.5h8M13 17h8M13 20.5h8" stroke="#2196F3" stroke-width="1.7" stroke-linecap="round"/>
    <text x="32" y="22" fill="#2196F3" font-family="Montserrat, Arial, sans-serif" font-size="12" font-weight="600">Settings</text>
  </g>

  <g transform="translate(20 155)">
    <rect width="305" height="46" rx="16" fill="#EAF4FF" stroke="#2196F3" stroke-opacity="0.10"/>
    <circle cx="23" cy="23" r="16" fill="#2196F3" fill-opacity="0.14"/>
    <path d="M23 13c-4.6 0-7.5 3.5-7.5 7.5C15.5 26 23 33 23 33s7.5-7 7.5-12.5C30.5 16.5 27.6 13 23 13zm0 10a2.8 2.8 0 1 1 0-5.6 2.8 2.8 0 0 1 0 5.6z" fill="#2196F3"/>
    <text x="49" y="19" fill="#6B7280" font-family="Montserrat, Arial, sans-serif" font-size="10">Lokasi Saya</text>
    <text x="49" y="35" fill="#111827" font-family="Montserrat, Arial, sans-serif" font-size="13" font-weight="700">Jakarta Selatan</text>
    <path d="M281 17a8 8 0 1 1-2.4-5.7" stroke="#2196F3" stroke-width="2" stroke-linecap="round"/>
    <path d="M279 11h7v7" stroke="#2196F3" stroke-width="2" stroke-linecap="round" stroke-linejoin="round"/>
  </g>

  <g transform="translate(0 213)">
    <circle cx="172.5" cy="105" r="105" fill="#2EA8E5" fill-opacity="0.25"/>
    <circle cx="172.5" cy="105" r="73" fill="#FFFFFF" filter="url(#circleShadow)"/>
    <text x="172.5" y="74" text-anchor="middle" fill="#2EA8E5" font-family="Montserrat, Arial, sans-serif" font-size="20" font-weight="700">PM2.5</text>
    <text x="172.5" y="119" text-anchor="middle" fill="#2EA8E5" font-family="Montserrat, Arial, sans-serif" font-size="40" font-weight="700">0</text>
    <text x="172.5" y="150" text-anchor="middle" fill="#6B7280" font-family="Montserrat, Arial, sans-serif" font-size="16">µg/m³</text>

    <text x="22" y="12" fill="#2196F3" font-family="Montserrat, Arial, sans-serif" font-size="11" font-weight="700">SPEED FAN</text>
    <g transform="translate(53 32) rotate(45)">
      <rect x="-16" y="-16" width="32" height="32" rx="8" fill="#2EA8E5"/>
    </g>
    <g transform="translate(43 22)">
      <path d="M2 11.5a8 8 0 1 0 4-6.8" stroke="#FFFFFF" stroke-width="2" stroke-linecap="round"/>
      <path d="M7 4h6v6" stroke="#FFFFFF" stroke-width="2" stroke-linecap="round" stroke-linejoin="round"/>
    </g>
  </g>

  <g transform="translate(20 489)" filter="url(#cardShadow)">
    <rect width="305" height="108" rx="20" fill="#FFFFFF"/>
    <g transform="translate(14 14)">
      <rect width="138" height="80" rx="18" fill="#FFF7ED"/>
      <circle cx="69" cy="24" r="18" fill="#F59E0B" fill-opacity="0.15"/>
      <path d="M69 14v13.5M69 27.5a4.8 4.8 0 1 0 0 .1M69 18.5h3" stroke="#F59E0B" stroke-width="2" stroke-linecap="round"/>
      <text x="69" y="56" text-anchor="middle" fill="#6B7280" font-family="Montserrat, Arial, sans-serif" font-size="12">Temperature</text>
      <text x="69" y="75" text-anchor="middle" fill="#F59E0B" font-family="Montserrat, Arial, sans-serif" font-size="20" font-weight="700">30°C</text>
    </g>
    <g transform="translate(158 14)">
      <rect width="133" height="80" rx="18" fill="#EFF8FF"/>
      <circle cx="66.5" cy="24" r="18" fill="#2196F3" fill-opacity="0.15"/>
      <path d="M66.5 14c7.2 8 8 11.6 8 15a8 8 0 1 1-16 0c0-3.4.8-7 8-15z" fill="#2196F3"/>
      <path d="M62.5 30c2 2.3 5.7 2.8 8 .7" stroke="#FFFFFF" stroke-width="1.5" stroke-linecap="round"/>
      <text x="66.5" y="56" text-anchor="middle" fill="#6B7280" font-family="Montserrat, Arial, sans-serif" font-size="12">Humidity</text>
      <text x="66.5" y="75" text-anchor="middle" fill="#2196F3" font-family="Montserrat, Arial, sans-serif" font-size="20" font-weight="700">53%</text>
    </g>
  </g>

  <g transform="translate(18 611)">
    <text x="0" y="0" fill="#29B6F6" font-family="Montserrat, Arial, sans-serif" font-size="12" font-weight="700">PM2.5</text>
    <text x="45" y="0" fill="#F59E0B" font-family="Montserrat, Arial, sans-serif" font-size="12" font-weight="700">CO2</text>
    <text x="78" y="0" fill="#A855F7" font-family="Montserrat, Arial, sans-serif" font-size="12" font-weight="700">TVOC</text>
    <text x="122" y="0" fill="#22C55E" font-family="Montserrat, Arial, sans-serif" font-size="12" font-weight="700">PM10</text>
    <g transform="translate(0 20)">
      <text x="0" y="4" fill="#6B7280" font-family="Montserrat, Arial, sans-serif" font-size="9">500</text>
      <text x="0" y="35" fill="#6B7280" font-family="Montserrat, Arial, sans-serif" font-size="9">400</text>
      <text x="0" y="66" fill="#6B7280" font-family="Montserrat, Arial, sans-serif" font-size="9">300</text>
      <text x="40" y="4" fill="#6B7280" font-family="Montserrat, Arial, sans-serif" font-size="9" font-weight="600">Sen</text>
      <text x="78" y="4" fill="#6B7280" font-family="Montserrat, Arial, sans-serif" font-size="9" font-weight="600">Sel</text>
      <text x="116" y="4" fill="#6B7280" font-family="Montserrat, Arial, sans-serif" font-size="9" font-weight="600">Rab</text>
      <text x="154" y="4" fill="#6B7280" font-family="Montserrat, Arial, sans-serif" font-size="9" font-weight="600">Kam</text>
      <text x="194" y="4" fill="#6B7280" font-family="Montserrat, Arial, sans-serif" font-size="9" font-weight="600">Jum</text>
      <text x="234" y="4" fill="#6B7280" font-family="Montserrat, Arial, sans-serif" font-size="9" font-weight="600">Sab</text>
      <text x="273" y="4" fill="#6B7280" font-family="Montserrat, Arial, sans-serif" font-size="9" font-weight="600">Min</text>
    </g>
  </g>

  <path d="M0 626H136C144 626 143 654 172.5 654C202 654 201 626 209 626H345V696H0V626Z" fill="#448AFF"/>
  <circle cx="172.5" cy="626" r="29" fill="#FF5252" stroke="#F7F9FC" stroke-width="6"/>
  <path d="M172.5 612v13M164 620.5a11 11 0 1 0 17 0" stroke="#FFFFFF" stroke-width="2.4" stroke-linecap="round"/>
  <text x="172.5" y="673" text-anchor="middle" fill="#FFFFFF" font-family="Montserrat, Arial, sans-serif" font-size="14" font-weight="700">AirFresh</text>
</svg>

